<?xml version="1.0" encoding="UTF-8" standalone="no"?>
<svg
   xmlns:dc="http://purl.org/dc/elements/1.1/"
   xmlns:cc="http://creativecommons.org/ns#"
   xmlns:rdf="http://www.w3.org/1999/02/22-rdf-syntax-ns#"
   xmlns:svg="http://www.w3.org/2000/svg"
   xmlns="http://www.w3.org/2000/svg"
   viewBox="0 0 793.70135 1122.52"
   height="1122.52"
   width="793.70135"
   xml:space="preserve"
   id="svg2"
   version="1.1"><metadata
     id="metadata8"><rdf:RDF><cc:Work
         rdf:about=""><dc:format>image/svg+xml</dc:format><dc:type
           rdf:resource="http://purl.org/dc/dcmitype/StillImage" /></cc:Work></rdf:RDF></metadata><defs
     id="defs6" /><g
     transform="matrix(1.3333333,0,0,-1.3333333,0,1122.52)"
     id="g10"><g
       id="g12"><path
         id="path14"
         style="fill:#272a7d;fill-opacity:1;fill-rule:nonzero;stroke:none"
         d="m 551.1234,420.9301 c 0,-140.108 -113.5797,-253.6877 -253.6877,-253.6877 -140.108,0 -253.6878,113.5797 -253.6878,253.6877 0,140.1078 113.5798,253.6875 253.6878,253.6875 140.108,0 253.6877,-113.5797 253.6877,-253.6875" /><path
         id="path16"
         style="fill:#000000;fill-opacity:1;fill-rule:nonzero;stroke:none"
         d="m 542.3026,420.9301 c 0,-135.2355 -109.6305,-244.8654 -244.8675,-244.8654 -135.2341,0 -244.8643,109.6299 -244.8643,244.8654 0,135.2353 109.6302,244.8655 244.8643,244.8655 135.237,0 244.8675,-109.6302 244.8675,-244.8655" /><path
         id="path18"
         style="fill:#fff200;fill-opacity:1;fill-rule:nonzero;stroke:none"
         d="m 149.1576,525.1054 c -0.2038,-0.724 23.1611,-1.5472 24.4004,-1.4902 16.1107,0.7432 31.4563,5.7447 46.4998,11.2034 19.9091,7.2263 40.5541,14.1273 61.7956,15.616 22.2074,1.5582 44.6479,-1.2535 65.9653,-7.5705 15.0466,-4.4594 28.8351,-12.1651 43.7899,-16.5722 15.1418,-4.4611 31.168,-6.7079 46.9391,-5.248 2.164,0.1995 4.3223,0.4683 6.4684,0.8121 0,0 65.4577,-136.3028 -145.4828,-268.3304 0,0 -199.4831,97.6601 -150.3757,271.5798" /><path
         id="path20"
         style="fill:#ffffff;fill-opacity:1;fill-rule:nonzero;stroke:none"
         d="m 163.5208,513.2455 c -0.1845,-0.6489 20.7726,-1.3881 21.8829,-1.3366 14.4487,0.6668 28.2143,5.1512 41.7036,10.0472 17.8577,6.4808 36.3733,12.6703 55.423,14.0068 19.9173,1.3972 40.0416,-1.1242 59.1616,-6.7915 13.4966,-3.9991 25.863,-10.9094 39.2748,-14.8615 13.5783,-4.0022 27.9533,-6.016 42.0974,-4.7075 1.9406,0.1786 3.8744,0.4201 5.8013,0.7288 0,0 57.803,-123.0353 -131.3818,-241.4469 0,0 -178.0047,88.3806 -133.9628,244.3612" /><path
         id="path22"
         style="fill:#d3d2d2;fill-opacity:1;fill-rule:nonzero;stroke:none"
         d="m 280.0213,479.6113 v -56.6524 h 22.0618 c 15.8862,0 26.509,1.0423 31.8682,3.1328 5.3549,2.0863 9.5525,5.3553 12.5955,9.8034 3.0427,4.4487 4.5632,9.6233 4.5632,15.5259 0,7.2624 -2.1348,13.2551 -6.4004,17.9768 -4.2681,4.7202 -9.6701,7.6711 -16.2062,8.8523 -4.8146,0.9054 -14.4833,1.3612 -29.0072,1.3612 z M 239.7107,313.7389 v 199.6466 h 64.6877 c 24.5152,0 40.4901,-1.0006 47.9373,-2.9971 11.4403,-2.9953 21.0163,-9.5108 28.7362,-19.5414 7.7148,-10.0338 11.5739,-22.995 11.5739,-38.8812 0,-12.2573 -2.2247,-22.5609 -6.6719,-30.9132 -4.4499,-8.3548 -10.1013,-14.9128 -16.9563,-19.6787 -6.8567,-4.7673 -13.8226,-7.9222 -20.9047,-9.4654 -9.6233,-1.9058 -23.559,-2.8596 -41.807,-2.8596 h -26.2846 v -75.31 z" /><path
         id="path24"
         style="fill:#e01d25;fill-opacity:1;fill-rule:nonzero;stroke:none"
         d="m 274.4759,486.5426 v -56.6527 h 22.0623 c 15.8862,0 26.5091,1.0429 31.868,3.1331 5.3552,2.0863 9.5527,5.3552 12.5952,9.8034 3.0429,4.4487 4.5637,9.6233 4.5637,15.5256 0,7.2626 -2.1347,13.2554 -6.4014,17.977 -4.267,4.72 -9.6693,7.6712 -16.2051,8.8524 -4.8144,0.9053 -14.4834,1.3612 -29.007,1.3612 z M 234.1658,320.6701 v 199.6467 h 64.6872 c 24.5146,0 40.4907,-1.0009 47.9373,-2.9971 11.4409,-2.9959 21.0169,-9.5108 28.7368,-19.5417 7.7144,-10.0336 11.5738,-22.9947 11.5738,-38.8809 0,-12.2573 -2.2249,-22.5609 -6.6719,-30.9132 -4.4501,-8.3549 -10.1015,-14.9134 -16.9563,-19.679 -6.8567,-4.767 -13.8223,-7.9223 -20.9046,-9.4652 -9.6234,-1.9057 -23.5605,-2.8598 -41.8074,-2.8598 h -26.2848 v -75.3098 z" /><path
         id="path26"
         style="fill:#fff200;fill-opacity:1;fill-rule:nonzero;stroke:none"
         d="m 98.6854,342.2849 2.7297,-4.7305 c -1.5219,-1.0471 -2.4639,-2.1917 -2.8324,-3.4509 -0.3685,-1.2591 -0.2021,-2.6572 0.4938,-4.1969 0.7351,-1.6274 1.6362,-2.7006 2.6998,-3.2137 1.0635,-0.5133 2.0593,-0.5641 2.9843,-0.146 0.5972,0.2699 1.0213,0.673 1.2866,1.2087 0.2597,0.5332 0.3475,1.3059 0.2602,2.31 -0.0561,0.6862 -0.3016,2.1968 -0.7271,4.5422 -0.5456,3.0172 -0.574,5.2954 -0.0793,6.8372 0.6916,2.1665 2.037,3.6978 4.0331,4.5998 1.2821,0.5794 2.6521,0.7613 4.0955,0.5465 1.446,-0.2206 2.7658,-0.879 3.9674,-1.9786 1.2019,-1.0996 2.2351,-2.6065 3.1082,-4.5383 1.4201,-3.1436 1.7951,-5.8291 1.1126,-8.0478 -0.6795,-2.2244 -2.1657,-3.8968 -4.464,-5.0341 l -2.4769,5.0134 c 1.2016,0.8039 1.9233,1.6869 2.1713,2.6518 0.2475,0.9649 0.053,2.16 -0.5871,3.5768 -0.6613,1.4635 -1.4842,2.4732 -2.4661,3.0237 -0.6327,0.3554 -1.2756,0.3892 -1.9313,0.0929 -0.5969,-0.2698 -0.9926,-0.7517 -1.1865,-1.4456 -0.256,-0.8839 -0.1171,-2.6892 0.411,-5.4182 0.534,-2.7266 0.7481,-4.8223 0.659,-6.2793 -0.0918,-1.4655 -0.5229,-2.774 -1.3042,-3.9305 -0.7815,-1.1568 -1.9652,-2.0937 -3.5518,-2.8105 -1.44,-0.6506 -2.9721,-0.8638 -4.5932,-0.6305 -1.6212,0.2333 -3.0683,0.94 -4.3385,2.1283 -1.2756,1.1857 -2.4055,2.8746 -3.3919,5.0581 -1.4366,3.1788 -1.8079,5.9505 -1.1081,8.318 0.6934,2.365 2.3726,4.3433 5.0259,5.944 z m 4.5873,-30.327 23.2911,14.8025 10.9571,-17.2406 -3.936,-2.5016 -7.9594,12.524 -5.1723,-3.2873 7.4012,-11.6456 -3.9362,-2.5016 -7.4012,11.6456 -6.3105,-4.0104 8.2488,-12.9796 -3.9362,-2.5013 z m 31.0229,-26.8249 3.5127,3.0677 7.8846,-9.0289 -8.2934,-7.2423 c -1.6211,0.1279 -3.4823,0.7453 -5.5933,1.8443 -2.1022,1.0981 -3.901,2.5038 -5.3966,4.2165 -1.8972,2.1728 -3.0946,4.4617 -3.5915,6.8766 -0.4927,2.4097 -0.2418,4.7693 0.7467,7.0653 0.9884,2.2958 2.4868,4.3209 4.4849,6.0656 2.1677,1.8933 4.4907,3.1201 6.9696,3.6899 2.478,0.5609 4.9325,0.3676 7.3581,-0.5931 1.8582,-0.7313 3.6465,-2.0863 5.3791,-4.0699 2.2521,-2.579 3.4724,-5.0701 3.6561,-7.4679 0.1746,-2.3976 -0.5049,-4.6369 -2.0577,-6.7266 l -4.4345,3.4962 c 0.7673,1.1818 1.0936,2.439 0.9831,3.767 -0.1109,1.3184 -0.6948,2.5829 -1.751,3.7922 -1.5973,1.8292 -3.4498,2.7785 -5.5582,2.8392 -2.1084,0.0606 -4.3089,-0.906 -6.5976,-2.9044 -2.4727,-2.1595 -3.8483,-4.3246 -4.1273,-6.4956 -0.2743,-2.1759 0.3569,-4.1488 1.9078,-5.9247 0.7648,-0.8756 1.7078,-1.6041 2.8204,-2.1847 1.1169,-0.5853 2.1969,-0.9728 3.2443,-1.1755 l 2.6368,2.3029 z m 24.6373,-1.1313 4.032,-3.8701 -10.3558,-10.789 c -1.6458,-1.7149 -2.658,-2.8715 -3.0455,-3.4701 -0.6115,-0.98 -0.8399,-2.0251 -0.6721,-3.1303 0.1686,-1.1143 0.8084,-2.2006 1.921,-3.2681 1.1259,-1.0811 2.2014,-1.6676 3.225,-1.7512 1.0241,-0.0837 1.9142,0.1573 2.6841,0.7273 0.7696,0.5701 1.9108,1.6385 3.4231,3.214 l 10.5784,11.0208 4.032,-3.8702 -10.0489,-10.4692 c -2.2955,-2.3913 -4.0257,-3.9807 -5.1911,-4.7588 -1.165,-0.7778 -2.3646,-1.2294 -3.6022,-1.3504 -1.2334,-0.125 -2.528,0.0845 -3.888,0.6154 -1.3649,0.5358 -2.8307,1.5506 -4.4017,3.0586 -1.8955,1.8193 -3.1232,3.416 -3.6782,4.7951 -0.5556,1.3788 -0.7824,2.6918 -0.6761,3.9433 0.1061,1.2517 0.4383,2.3397 1.0004,3.287 0.83,1.3938 2.3196,3.2051 4.4592,5.4343 z m 3.4659,-39.924 15.8624,22.5825 9.6038,-6.7459 c 2.4131,-1.6948 4.0249,-3.1331 4.8336,-4.3058 0.8144,-1.1764 1.1812,-2.5095 1.1109,-4.0068 -0.0739,-1.5023 -0.5737,-2.9177 -1.5114,-4.2528 -1.1925,-1.6979 -2.6691,-2.749 -4.4379,-3.1552 -1.7691,-0.406 -3.7386,-0.0587 -5.9182,1.0406 0.5806,-1.2634 0.9468,-2.4628 1.0993,-3.5983 0.1576,-1.1393 0.1593,-2.9696 0.009,-5.4856 l -0.3396,-6.34 -5.451,3.8287 0.1936,7.2275 c 0.0575,2.5739 0.0286,4.2429 -0.0865,5.0066 -0.1137,0.7549 -0.3492,1.3915 -0.7149,1.8995 -0.3705,0.5114 -1.0791,1.1347 -2.1302,1.8731 l -0.9252,0.65 -6.6243,-9.4306 -4.5732,3.2125 z m 13.7228,9.8136 3.375,-2.3706 c 2.1869,-1.5358 3.6147,-2.3976 4.2905,-2.5977 0.6709,-0.1962 1.3272,-0.1783 1.9494,0.0595 0.6278,0.2342 1.1789,0.6948 1.6554,1.3728 0.5355,0.7623 0.7588,1.5163 0.686,2.2734 -0.076,0.7523 -0.4422,1.4491 -1.0933,2.0872 -0.3362,0.3143 -1.4267,1.1199 -3.2721,2.4159 l -3.5586,2.4999 z m 33.5637,-37.8187 -5.3646,2.73 0.7257,6.6801 -9.8646,5.0202 -4.8935,-4.559 -5.267,2.6805 22.066,19.7353 5.2617,-2.6776 z m -4.1383,14.3883 1.2146,10.8423 -7.9532,-7.4129 z m 9.1751,-16.2212 9.0496,26.0711 5.1101,-1.7739 4.6644,-21.1958 6.0647,17.4713 4.8793,-1.6937 -9.0499,-26.0708 -5.2736,1.8306 -4.6165,20.8055 -5.9491,-17.1377 z m 47.7953,-2.5702 5.034,-2.5543 c -1.3354,-2.8522 -3.0812,-4.8382 -5.2322,-5.9649 -2.1503,-1.1206 -4.6817,-1.4315 -7.5994,-0.9258 -3.6141,0.6261 -6.3688,2.3746 -8.2706,5.2469 -1.895,2.8709 -2.4752,6.4466 -1.7325,10.7317 0.7843,4.5255 2.5647,7.8418 5.3348,9.9436 2.77,2.1016 6.0633,2.8219 9.8736,2.1617 3.3293,-0.5768 5.8609,-2.0324 7.596,-4.3608 1.0389,-1.3796 1.6733,-3.2108 1.9154,-5.502 l -5.6549,-0.3501 c -0.079,1.4613 -0.557,2.6912 -1.4346,3.6845 -0.8838,0.9941 -2.0542,1.614 -3.5101,1.8666 -2.0191,0.3498 -3.7834,-0.0879 -5.2878,-1.3201 -1.5097,-1.2249 -2.5421,-3.4583 -3.1036,-6.6991 -0.5944,-3.4305 -0.3986,-5.9874 0.5834,-7.6573 0.9873,-1.6769 2.4689,-2.6835 4.4498,-3.0268 1.4621,-0.2534 2.802,-0.009 4.0138,0.7387 1.2121,0.7484 2.2238,2.0727 3.0249,3.9875 z m -14.938,-15.2101 0.3773,2.1775 c 1.2554,-0.3546 2.4145,-0.627 3.4843,-0.8124 1.1013,-0.1907 1.9582,-0.1372 2.5588,0.1695 0.4629,0.2263 0.7314,0.5709 0.8136,1.0455 0.0723,0.4178 -0.0539,0.8178 -0.3864,1.1948 -0.3322,0.3773 -0.9011,0.6321 -1.7047,0.7713 -0.7974,0.1383 -1.6297,0.1522 -2.5078,0.0499 l 0.8064,1.7574 c 1.0213,0.1752 2.0877,0.1599 3.2017,-0.0331 1.5509,-0.2687 2.6626,-0.8133 3.3492,-1.6299 0.6854,-0.8229 0.9468,-1.7224 0.7778,-2.6969 -0.1896,-1.095 -0.7852,-1.8981 -1.796,-2.427 -1.3638,-0.722 -3.1658,-0.8859 -5.4063,-0.4975 -1.595,0.2761 -2.7864,0.587 -3.5679,0.9309 z m 50.3878,1.4731 -6.0021,0.4558 -1.9003,6.4449 -11.0367,0.8385 -2.7627,-6.0908 -5.8929,0.4473 12.7743,26.7063 5.8864,-0.447 z m -9.3558,11.6884 -3.0506,10.4752 -4.4887,-9.9026 z m 24.018,-10.9117 -3.6133,27.3592 20.2518,2.6745 0.6106,-4.6233 -14.7113,-1.9429 0.8022,-6.0758 13.68,1.8068 0.6106,-4.6236 -13.6797,-1.8068 0.9791,-7.4129 15.2461,2.0135 0.6106,-4.6233 z m 34.3712,14.4057 5.0746,2.0188 c 0.8166,-1.6568 1.8136,-2.7538 3.0064,-3.3001 1.1928,-0.5462 2.6005,-0.583 4.2242,-0.1167 1.7164,0.4929 2.9083,1.2299 3.5697,2.2084 0.6613,0.9788 0.8549,1.9565 0.5745,2.9322 -0.1808,0.6296 -0.5187,1.1075 -1.0105,1.4474 -0.4901,0.3339 -1.2424,0.532 -2.2482,0.5907 -0.6876,0.0431 -2.2175,0.0178 -4.5997,-0.0649 -3.0646,-0.1049 -5.3229,0.1953 -6.7774,0.9071 -2.0441,0.9969 -3.3656,2.5489 -3.9702,4.6545 -0.3886,1.3521 -0.3711,2.7337 0.0496,4.1312 0.4269,1.3991 1.2688,2.6104 2.5299,3.6408 1.2614,1.0307 2.9013,1.836 4.9388,2.4213 3.3157,0.9525 6.0271,0.936 8.1244,-0.0592 2.103,-0.993 3.5439,-2.7048 4.3379,-5.1432 l -5.3184,-1.7283 c -0.6222,1.3051 -1.3918,2.1464 -2.3111,2.5311 -0.919,0.3841 -2.1297,0.364 -3.6238,-0.0655 -1.5435,-0.4433 -2.6614,-1.112 -3.3474,-2.0041 -0.4431,-0.5751 -0.5692,-1.2061 -0.3705,-1.8978 0.1808,-0.6296 0.6006,-1.0905 1.2591,-1.3827 0.8382,-0.3807 2.6445,-0.5035 5.4213,-0.3742 2.7748,0.1355 4.8793,0.0448 6.3085,-0.2531 1.4369,-0.3025 2.6694,-0.9176 3.7018,-1.8573 1.0318,-0.9402 1.7881,-2.2467 2.2688,-3.92 0.4363,-1.5188 0.4261,-3.0657 -0.0385,-4.6361 -0.4646,-1.5704 -1.3726,-2.9007 -2.7315,-3.9861 -1.3575,-1.0916 -3.1915,-1.9661 -5.4944,-2.6277 -3.3525,-0.9629 -6.1489,-0.9309 -8.3908,0.1029 -2.24,1.0273 -3.9555,2.9741 -5.1571,5.8306 z m 30.7032,0.0711 -11.3635,25.1487 18.6156,8.4119 1.9202,-4.25 -13.5227,-6.1104 2.5235,-5.5848 12.5744,5.682 1.9205,-4.2502 -12.5745,-5.6818 3.0793,-6.8139 14.0142,6.3326 1.9205,-4.25 z m 25.3162,12.0725 -13.5499,24.0415 10.2243,5.7623 c 2.5687,1.4479 4.5607,2.2833 5.9675,2.5083 1.4125,0.2282 2.7737,-0.015 4.0946,-0.7231 1.3241,-0.7137 2.3862,-1.7742 3.1873,-3.1958 1.0188,-1.8076 1.3317,-3.5926 0.9363,-5.364 -0.3952,-1.7713 -1.5571,-3.3993 -3.4878,-4.8931 1.3902,-0.0201 2.6306,-0.2061 3.7211,-0.5576 1.0959,-0.3481 2.7485,-1.135 4.9549,-2.3542 l 5.5752,-3.037 -5.8031,-3.2709 -6.4394,3.2876 c -2.2984,1.1602 -3.8166,1.8527 -4.5556,2.0778 -0.7302,0.2228 -1.4063,0.284 -2.0222,0.1729 -0.6214,-0.1142 -1.4888,-0.485 -2.6082,-1.116 l -0.9847,-0.555 5.6582,-10.0397 z m -2.9472,16.6116 3.5926,2.0248 c 2.3281,1.3122 3.7208,2.2297 4.1925,2.7536 0.466,0.5207 0.7325,1.1208 0.7858,1.7849 0.0589,0.6676 -0.1194,1.3635 -0.5262,2.0852 -0.4575,0.8116 -1.0414,1.3377 -1.7563,1.5985 -0.7115,0.2551 -1.4981,0.2248 -2.3542,-0.0879 -0.4289,-0.1681 -1.6254,-0.8056 -3.5898,-1.9128 l -3.7888,-2.1351 z m 33.5194,3.3316 -24.8009,15.6203 4.7512,3.7267 18.1219,-11.7476 -7.3157,20.224 4.6704,3.6632 9.309,-27.7718 z m 15.8409,13.4702 -19.0007,20.0143 4.0533,3.8478 19.0003,-20.0143 z m 13.3968,29.2028 4.782,2.9996 c 1.7572,-2.6138 2.5603,-5.1329 2.4183,-7.5571 -0.1471,-2.42 -1.1841,-4.7501 -3.1204,-6.9908 -2.3981,-2.7754 -5.3158,-4.2361 -8.7571,-4.3867 -3.437,-0.1459 -6.8006,1.1983 -10.091,4.0417 -3.4756,3.0033 -5.4012,6.2373 -5.7759,9.6942 -0.375,3.4568 0.7038,6.6506 3.2321,9.5768 2.2093,2.5569 4.7607,3.977 7.6501,4.265 1.7175,0.18 3.6139,-0.2194 5.7025,-1.1916 l -2.6119,-5.0276 c -1.2934,0.6846 -2.5943,0.9085 -3.8973,0.6679 -1.3074,-0.2455 -2.4418,-0.9295 -3.4076,-2.0475 -1.3399,-1.5505 -1.8737,-3.2882 -1.5922,-5.2126 0.2724,-1.9247 1.6552,-3.96 4.1437,-6.1104 2.6345,-2.2762 4.9272,-3.4254 6.8641,-3.4435 1.9463,-0.0176 3.5719,0.7339 4.8864,2.2552 0.9703,1.1228 1.4513,2.3967 1.434,3.8211 -0.0173,1.4245 -0.6313,2.9736 -1.8598,4.6463 z m 5.3439,-20.6379 -1.6719,1.4448 c 0.9504,0.8938 1.781,1.7467 2.4905,2.5682 0.7311,0.8459 1.1262,1.6078 1.1727,2.2808 0.0448,0.5133 -0.1125,0.9209 -0.4771,1.2359 -0.3209,0.2772 -0.7288,0.3747 -1.2231,0.2843 -0.4944,-0.0907 -1.0058,-0.4471 -1.5392,-1.0644 -0.5293,-0.6123 -0.9695,-1.3184 -1.3346,-2.1238 l -1.0908,1.5965 c 0.3756,0.9655 0.9383,1.8717 1.6773,2.7275 1.0293,1.1908 2.0687,1.8632 3.1221,2.031 1.0584,0.1639 1.9641,-0.0754 2.7125,-0.7222 0.841,-0.7265 1.2225,-1.6506 1.1551,-2.7896 -0.0834,-1.5409 -0.8708,-3.1697 -2.3579,-4.8903 -1.0582,-1.2249 -1.9383,-2.0861 -2.6356,-2.5787 z m -1.9934,30.2842 c -2.3643,1.5248 -4.1213,3.1623 -5.2738,4.9073 -0.8447,1.2861 -1.4414,2.6955 -1.7924,4.2135 -0.3509,1.5182 -0.4033,2.9661 -0.1621,4.3472 0.3229,1.8402 1.0913,3.7068 2.3097,5.5964 2.2076,3.4223 5.0329,5.468 8.4809,6.1566 3.4501,0.6794 7.0648,-0.1993 10.8491,-2.6399 3.7516,-2.42 6.0304,-5.3343 6.834,-8.7344 0.809,-3.4036 0.1086,-6.8122 -2.0883,-10.2186 -2.2249,-3.4498 -5.0499,-5.5185 -8.4733,-6.1923 -3.418,-0.6775 -6.9803,0.1755 -10.6838,2.5642 z m 2.9563,4.9269 c 2.6288,-1.6954 5.0145,-2.3703 7.1583,-2.033 2.1385,0.3407 3.8143,1.446 5.019,3.3137 1.2082,1.8734 1.5223,3.8418 0.9545,5.9125 -0.5766,2.069 -2.2091,3.9705 -4.9028,5.7078 -2.6615,1.7164 -5.0242,2.4149 -7.0864,2.0858 -2.0639,-0.3201 -3.7162,-1.448 -4.9663,-3.386 -1.2464,-1.9324 -1.5885,-3.9212 -1.0287,-5.9562 0.5658,-2.0389 2.1802,-3.9211 4.8524,-5.6446 z m 17.2959,18.5899 1.7631,5.169 c 1.7901,-0.4558 3.272,-0.4111 4.4623,0.1406 1.1903,0.5516 2.1328,1.5973 2.8335,3.1348 0.7407,1.6248 0.9556,3.0095 0.6412,4.1482 -0.3141,1.1387 -0.9314,1.9213 -1.855,2.3423 -0.5961,0.2718 -1.1789,0.3254 -1.7569,0.1723 -0.5723,-0.1556 -1.2115,-0.5984 -1.91,-1.3249 -0.4796,-0.4943 -1.4547,-1.6738 -2.9398,-3.5382 -1.9117,-2.3972 -3.6076,-3.9186 -5.0938,-4.5618 -2.0858,-0.9056 -4.1242,-0.9014 -6.1175,0.007 -1.2801,0.5837 -2.319,1.4947 -3.1079,2.7224 -0.786,1.2339 -1.1594,2.6609 -1.1231,4.2891 0.0363,1.6285 0.4899,3.3982 1.3692,5.3272 1.4309,3.139 3.2054,5.1893 5.3243,6.1367 2.1217,0.953 4.3591,0.9357 6.7286,-0.0454 l -2.1427,-5.1653 c -1.3961,0.3751 -2.5359,0.3371 -3.4254,-0.1116 -0.8895,-0.4491 -1.6606,-1.3822 -2.3054,-2.797 -0.6662,-1.4613 -0.8844,-2.7456 -0.652,-3.8466 0.1491,-0.7107 0.5468,-1.2166 1.2013,-1.5151 0.5964,-0.2716 1.2195,-0.252 1.8695,0.0587 0.8339,0.3894 2.101,1.6826 3.8075,3.8772 1.7002,2.1971 3.1368,3.7377 4.2916,4.6304 1.1639,0.8954 2.4324,1.4329 3.8174,1.6064 1.3853,0.1734 2.8698,-0.1009 4.4538,-0.8229 1.438,-0.6554 2.607,-1.6685 3.4988,-3.0419 0.8918,-1.3737 1.3128,-2.9282 1.2546,-4.6667 -0.0521,-1.741 -0.5796,-3.7031 -1.5735,-5.8836 -1.4465,-3.1739 -3.2882,-5.2783 -5.5306,-6.3107 -2.2366,-1.035 -4.8311,-1.0735 -7.7831,-0.1307" /><path
         id="path28"
         style="fill:#fff200;fill-opacity:1;fill-rule:nonzero;stroke:none"
         d="m 162.9037,572.3478 -3.5447,4.2713 10.9774,9.1105 8.3687,-10.0834 c -0.2007,-1.9247 -0.991,-4.121 -2.3615,-6.5996 -1.3694,-2.4678 -3.0957,-4.5657 -5.1781,-6.2943 -2.6416,-2.1923 -5.4008,-3.5484 -8.2882,-4.0672 -2.882,-0.5139 -5.6815,-0.1451 -8.3837,1.0996 -2.702,1.2444 -5.0664,3.0875 -7.0827,5.5173 -2.1872,2.6354 -3.5776,5.436 -4.1814,8.4019 -0.5932,2.9654 -0.2897,5.8797 0.9258,8.7364 0.9256,2.1889 2.5909,4.2764 5.0029,6.2782 3.1357,2.6025 6.1356,3.9795 8.9943,4.1264 2.8574,0.1363 5.5015,-0.7393 7.941,-2.649 l -4.2922,-5.1715 c -1.383,0.9482 -2.869,1.3742 -4.4518,1.2824 -1.5724,-0.0927 -3.094,-0.7495 -4.5646,-1.9701 -2.2238,-1.8456 -3.4087,-4.0212 -3.5439,-6.5276 -0.135,-2.5067 0.949,-5.1537 3.2581,-7.9362 2.4951,-3.0064 5.0301,-4.7078 7.6045,-5.1043 2.5804,-0.3921 4.9468,0.3002 7.1056,2.0919 1.065,0.8839 1.9599,1.9843 2.6842,3.2905 0.7296,1.3113 1.2228,2.5849 1.4952,3.8245 l -2.6609,3.206 z m 23.6211,3.4991 -17.9405,27.5103 11.6994,7.6297 c 2.9393,1.9171 5.241,3.062 6.8948,3.4376 1.6596,0.3795 3.2949,0.1956 4.9181,-0.5437 1.6271,-0.7461 2.9704,-1.9239 4.0311,-3.5504 1.3487,-2.0684 1.8578,-4.1644 1.5245,-6.2983 -0.3334,-2.1342 -1.588,-4.157 -3.7661,-6.0795 1.6526,0.0831 3.1399,-0.0425 4.4617,-0.3761 1.3286,-0.3291 3.3517,-1.1364 6.0656,-2.4149 l 6.8553,-3.1782 -6.6407,-4.3305 -7.9005,3.409 c -2.8182,1.201 -4.6752,1.9071 -5.5701,2.1175 -0.8841,0.2083 -1.692,0.229 -2.4145,0.0499 -0.7294,-0.1834 -1.7311,-0.6908 -3.0118,-1.5259 l -1.1271,-0.7351 7.492,-11.4882 z m -4.7772,19.5015 4.1113,2.681 c 2.6637,1.7374 4.2472,2.9342 4.7671,3.5927 0.5133,0.6542 0.7837,1.3875 0.7959,2.1804 0.0187,0.7971 -0.2466,1.6098 -0.7855,2.4358 -0.6054,0.9283 -1.3396,1.5086 -2.2084,1.7634 -0.8649,0.2483 -1.7966,0.1517 -2.7893,-0.2857 -0.4964,-0.2324 -1.8683,-1.0817 -4.1159,-2.5475 l -4.3353,-2.8273 z m 20.6549,27.9309 6.1492,2.5348 6.783,-16.4546 c 1.078,-2.6152 1.8522,-4.2724 2.3182,-4.9816 0.7744,-1.1361 1.8031,-1.8862 3.0872,-2.2334 1.2943,-0.3515 2.7845,-0.1752 4.4807,0.5238 1.7178,0.7081 2.8726,1.5977 3.4546,2.6728 0.5822,1.0752 0.7469,2.16 0.4955,3.2721 -0.2517,1.1117 -0.868,2.8672 -1.8584,5.2701 l -6.9287,16.8084 6.1492,2.5347 6.582,-15.9667 c 1.5032,-3.6474 2.4044,-6.2943 2.6927,-7.9367 0.2882,-1.6424 0.2049,-3.1652 -0.2574,-4.5715 -0.4553,-1.4031 -1.3045,-2.7124 -2.5353,-3.9393 -1.2379,-1.2296 -3.0464,-2.3388 -5.4426,-3.3267 -2.8907,-1.1917 -5.2188,-1.7626 -6.9871,-1.7059 -1.7682,0.0567 -3.3069,0.4394 -4.619,1.1554 -1.3125,0.716 -2.338,1.5996 -3.1003,2.6663 -1.1197,1.5729 -2.3783,4.064 -3.7797,7.4636 z m 43.5433,-18.7954 -7.3863,32.0021 10.3615,2.3913 c 3.926,0.9062 6.5171,1.3396 7.7831,1.2943 1.944,-0.0613 3.7193,-0.7501 5.3274,-2.0736 1.6078,-1.3235 2.706,-3.2593 3.2939,-5.8068 0.4538,-1.9666 0.4762,-3.6955 0.0779,-5.1995 -0.4056,-1.5061 -1.0644,-2.7644 -1.9825,-3.7846 -0.9196,-1.0125 -1.9199,-1.777 -2.9954,-2.2841 -1.4714,-0.6614 -3.6629,-1.3318 -6.5829,-2.0058 l -4.2012,-0.9698 2.7853,-12.0676 z m 0.3427,28.0897 2.1044,-9.1179 3.5235,0.8132 c 2.5401,0.5862 4.1916,1.148 4.9708,1.681 0.7793,0.5329 1.3295,1.2089 1.6469,2.0435 0.3192,0.8268 0.3742,1.7104 0.1542,2.6637 -0.2701,1.1695 -0.8348,2.0514 -1.688,2.6549 -0.8603,0.6015 -1.8272,0.8804 -2.9222,0.8317 -0.8,-0.0354 -2.3593,-0.3166 -4.6834,-0.8532 z m 28.1168,-5.415 c -0.036,3.3482 0.4385,6.1667 1.4154,8.4557 0.7236,1.6821 1.7319,3.1989 3.0095,4.5431 1.2779,1.3439 2.6813,2.3454 4.2112,3.0115 2.0395,0.8858 4.3968,1.347 7.0724,1.3757 4.8467,0.0521 8.7313,-1.4125 11.6759,-4.3858 2.9373,-2.9806 4.4345,-7.1467 4.4921,-12.5056 0.0569,-5.313 -1.3434,-9.4873 -4.1933,-12.515 -2.8497,-3.035 -6.694,-4.5748 -11.518,-4.6264 -4.885,-0.0524 -8.792,1.3964 -11.706,4.3546 -2.914,2.9506 -4.4031,7.0478 -4.4592,12.2922 z m 6.8318,0.2948 c 0.04,-3.7231 0.9343,-6.5345 2.6748,-8.4425 1.7407,-1.9003 3.9373,-2.8403 6.5823,-2.8119 2.6527,0.0286 4.8138,1.0074 6.4979,2.9293 1.6767,1.9292 2.4945,4.7973 2.4536,8.6122 -0.0405,3.7687 -0.896,6.573 -2.5747,8.4053 -1.6713,1.84 -3.8752,2.7414 -6.6197,2.7119 -2.7369,-0.0295 -4.936,-0.9933 -6.59,-2.8843 -1.654,-1.8983 -2.4647,-4.7358 -2.4242,-8.52 z m 43.0464,-18.1038 5.2917,32.4142 10.4953,-1.7136 c 3.9764,-0.6491 6.5384,-1.2299 7.6926,-1.7515 1.7759,-0.7934 3.1581,-2.1036 4.1446,-3.9379 0.9864,-1.834 1.269,-4.0413 0.8478,-6.6217 -0.3254,-1.9919 -0.9595,-3.6003 -1.8984,-4.8416 -0.9459,-1.2399 -2.0327,-2.1546 -3.2686,-2.7507 -1.2345,-0.5885 -2.4503,-0.917 -3.6377,-0.9785 -1.6123,-0.0545 -3.8942,0.1553 -6.8519,0.6383 l -4.2557,0.6945 -1.9953,-12.2233 z m 10.9618,25.8644 -1.5077,-9.2349 3.5688,-0.5828 c 2.5727,-0.4201 4.314,-0.5259 5.237,-0.328 0.9232,0.1978 1.6886,0.6151 2.2983,1.2668 0.6089,0.6443 0.9947,1.4411 1.1523,2.4069 0.1933,1.1846 0.005,2.2147 -0.5559,3.0963 -0.5683,0.883 -1.3572,1.5074 -2.3893,1.8774 -0.7537,0.2704 -2.3031,0.6006 -4.6573,0.985 z m 43.5274,-41.2528 -6.7323,2.4477 -0.1108,7.996 -12.3792,4.5011 -5.1202,-6.0939 -6.6101,2.4035 23.2075,26.5084 6.6028,-2.4006 z m -6.9726,16.3967 -0.1355,12.9835 -8.3211,-9.9088 z m 13.4971,-20.3162 13.9448,23.4615 -8.3594,4.9683 2.8358,4.7716 22.3971,-13.3121 -2.8361,-4.7713 -8.3199,4.9451 -13.9445,-23.4616 z m 38.3806,-4.7109 c 2.2643,2.4667 4.5382,4.1981 6.8164,5.1993 1.6787,0.7322 3.4518,1.1489 5.3031,1.2555 1.8516,0.1063 3.5603,-0.1236 5.1318,-0.684 2.0937,-0.7489 4.1287,-2.0254 6.0999,-3.8347 3.5708,-3.2775 5.4023,-7.003 5.5165,-11.1861 0.1035,-4.1834 -1.6543,-8.2466 -5.2781,-12.1947 -3.5929,-3.9146 -7.4696,-6.0015 -11.6195,-6.2603 -4.155,-0.2644 -8.0127,1.2422 -11.5665,4.5043 -3.5988,3.3035 -5.4578,7.033 -5.5599,11.1844 -0.1071,4.1453 1.6096,8.1524 5.1563,12.0163 z m 5.1848,-4.4583 c -2.5174,-2.7428 -3.7885,-5.4054 -3.8242,-7.9881 -0.0303,-2.5767 0.9292,-4.765 2.878,-6.5537 1.9545,-1.7937 4.2001,-2.5579 6.7433,-2.3082 2.5427,0.2605 5.1016,1.7929 7.6811,4.6035 2.5486,2.7768 3.8426,5.4076 3.8715,7.8925 0.0397,2.4854 -0.9513,4.6505 -2.9732,6.5063 -2.0163,1.8508 -4.2798,2.6521 -6.7799,2.4041 -2.5053,-0.2532 -5.0375,-1.7686 -7.5966,-4.5564" /><path
         id="path30"
         style="fill:#ed1c24;fill-opacity:1;fill-rule:nonzero;stroke:none"
         d="m 402.7796,579.5172 18.5817,27.0817 5.4842,-3.763 -18.5817,-27.0814 z" /><path
         id="path32"
         style="fill:#fff200;fill-opacity:1;fill-rule:evenodd;stroke:none"
         d="m 417.78,601.4375 5.5247,-3.7618 3.5813,5.161 -5.5247,3.7622 z" /><path
         id="path34"
         style="fill:#fff200;fill-opacity:1;fill-rule:nonzero;stroke:none"
         d="m 372.9813,633.8874 5.167,5.1682 6.5225,-2.3763 -8.0229,-4.1276 z" /></g></g></svg>